<svg t="1752329499325" class="icon" viewBox="0 0 1026 1024" version="1.1" xmlns="http://www.w3.org/2000/svg" p-id="1459" width="200" height="200"><path d="M506.368 806.912c-3.584-0.512-7.168-1.024-10.752-2.048-9.216-2.048-17.408-7.168-24.064-13.312l-3.072-3.072-389.632-404.992c-12.288-12.8-18.432-27.136-17.408-45.056 1.024-31.232 28.672-56.832 58.368-54.272 14.336 1.024 26.624 7.68 36.864 17.92L506.88 666.624c1.024 1.024 1.536 2.048 3.584 4.096 1.024-2.048 1.536-3.584 2.56-4.608 116.736-121.856 233.984-243.2 350.72-365.056 9.728-9.728 20.992-16.896 34.304-18.432 0.512 0 0.512-0.512 1.024-0.512h11.776c0.512 0 1.024 0.512 2.048 0.512 22.016 3.584 39.424 19.456 45.056 41.984l2.048 8.704v12.288c-0.512 0-0.512 0.512-0.512 1.024-1.536 14.336-8.192 26.112-18.432 35.84-25.6 26.112-50.688 52.736-76.288 79.36-103.936 108.032-208.384 216.064-312.32 324.608-5.632 6.144-12.288 11.264-19.968 13.824-7.168 2.56-14.336 4.608-21.504 6.656h-4.608z" p-id="1460" fill="#515151"></path></svg>